<?xml version="1.0" encoding="UTF-8" standalone="no"?>
<svg
   viewBox="0 0 25 41"
   version="1.1"
   id="svg2"
   xmlns="http://www.w3.org/2000/svg"
   xmlns:svg="http://www.w3.org/2000/svg">
  <defs
     id="defs2" />
  <g
     transform="matrix(1.5083165,0,0,1.6490926,-5.599798,-1694.5051)"
     id="g2">
    <path
       d="M 12,0 C 7.5817,0 4,3.5817 4,8 c 0,1.421 0.3816,2.75 1.0312,3.906 0.1079,0.192 0.221,0.381 0.3438,0.563 L 12,24 18.625,12.469 c 0.102,-0.151 0.19,-0.311 0.281,-0.469 l 0.063,-0.094 C 19.618,10.75 20,9.421 20,8 20,3.5817 16.418,0 12,0 Z m 0,4 c 2.209,0 4,1.7909 4,4 0,2.209 -1.791,4 -4,4 C 9.7909,12 8,10.209 8,8 8,5.7909 9.7909,4 12,4 Z"
       transform="translate(0,1028.4)"
       fill="#ff4b26"
       id="path1" />
    <path
       d="M 12,3 C 9.2386,3 7,5.2386 7,8 c 0,2.761 2.2386,5 5,5 2.761,0 5,-2.239 5,-5 0,-2.7614 -2.239,-5 -5,-5 z m 0,2 c 1.657,0 3,1.3431 3,3 0,1.6569 -1.343,3 -3,3 C 10.343,11 9,9.6569 9,8 9,6.3431 10.343,5 12,5 Z"
       transform="translate(0,1028.4)"
       fill="#c0392b"
       id="path2" />
  </g>
>
</svg>
